<?xml version="1.0" encoding="iso-8859-1"?>
<!-- Generator: Adobe Illustrator 17.0.0, SVG Export Plug-In . SVG Version: 6.00 Build 0)  -->
<!DOCTYPE svg PUBLIC "-//W3C//DTD SVG 1.1//EN" "http://www.w3.org/Graphics/SVG/1.1/DTD/svg11.dtd">
<svg version="1.1" id="&#x5716;&#x5C64;_1" xmlns="http://www.w3.org/2000/svg" xmlns:xlink="http://www.w3.org/1999/xlink" x="0px"
	 y="0px" width="291.184px" height="52.039px" viewBox="0 0 291.184 52.039" style="enable-background:new 0 0 291.184 52.039;"
	 xml:space="preserve">
<g>
	<g>
		<g>
			<linearGradient id="SVGID_1_" gradientUnits="userSpaceOnUse" x1="0" y1="48.502" x2="56.9017" y2="48.502">
				<stop  offset="0" style="stop-color:#6EC5CB"/>
				<stop  offset="0.3595" style="stop-color:#75C7D0"/>
				<stop  offset="1" style="stop-color:#7ECAD6"/>
			</linearGradient>
			<path style="fill:url(#SVGID_1_);" d="M56.889,52.039H0v-7.074c0,0,36.822,0,50.883,0C57.471,44.965,56.889,52.039,56.889,52.039
				z"/>
		</g>
	</g>
	<g>
		<g>
			<linearGradient id="SVGID_2_" gradientUnits="userSpaceOnUse" x1="3.0195" y1="33.5127" x2="53.8691" y2="33.5127">
				<stop  offset="0" style="stop-color:#6EC5CB"/>
				<stop  offset="0.3595" style="stop-color:#75C7D0"/>
				<stop  offset="1" style="stop-color:#7ECAD6"/>
			</linearGradient>
			<rect x="3.019" y="29.976" style="fill:url(#SVGID_2_);" width="50.85" height="7.074"/>
		</g>
	</g>
	<g>
		<g>
			<linearGradient id="SVGID_3_" gradientUnits="userSpaceOnUse" x1="3.0195" y1="18.5245" x2="53.8691" y2="18.5245">
				<stop  offset="0" style="stop-color:#6EC5CB"/>
				<stop  offset="0.3595" style="stop-color:#75C7D0"/>
				<stop  offset="1" style="stop-color:#7ECAD6"/>
			</linearGradient>
			<rect x="3.019" y="14.987" style="fill:url(#SVGID_3_);" width="50.85" height="7.074"/>
		</g>
	</g>
	<g>
		<g>
			<linearGradient id="SVGID_4_" gradientUnits="userSpaceOnUse" x1="1.5076" y1="3.5376" x2="55.3789" y2="3.5376">
				<stop  offset="0" style="stop-color:#F3E727"/>
				<stop  offset="0.2045" style="stop-color:#F3E125"/>
				<stop  offset="0.6226" style="stop-color:#F3D823"/>
			</linearGradient>
			<path style="fill:url(#SVGID_4_);" d="M55.379,7.075c0,0-35.652,0-48.562,0C1.24,7.075,1.51,0,1.51,0h53.869V7.075z"/>
		</g>
	</g>
	<g>
		<g>
			<linearGradient id="SVGID_5_" gradientUnits="userSpaceOnUse" x1="3.0195" y1="11.0317" x2="55.3789" y2="11.0317">
				<stop  offset="0" style="stop-color:#F3D823"/>
				<stop  offset="1" style="stop-color:#F3E727"/>
			</linearGradient>
			<polygon style="fill:url(#SVGID_5_);" points="55.379,7.075 3.019,22.063 3.019,14.987 55.379,0 			"/>
		</g>
	</g>
	<g>
		<g>
			<linearGradient id="SVGID_6_" gradientUnits="userSpaceOnUse" x1="3.0195" y1="26.0196" x2="53.8691" y2="26.0196">
				<stop  offset="0" style="stop-color:#F3D823"/>
				<stop  offset="1" style="stop-color:#F3E727"/>
			</linearGradient>
			<polygon style="fill:url(#SVGID_6_);" points="53.869,22.063 3.019,37.052 3.019,29.976 53.869,14.987 			"/>
		</g>
	</g>
	<g>
		<g>
			<linearGradient id="SVGID_7_" gradientUnits="userSpaceOnUse" x1="0" y1="41.0074" x2="53.8691" y2="41.0074">
				<stop  offset="0" style="stop-color:#F3D823"/>
				<stop  offset="1" style="stop-color:#F3E727"/>
			</linearGradient>
			<polygon style="fill:url(#SVGID_7_);" points="53.869,37.052 0,52.039 0,44.964 53.869,29.976 			"/>
		</g>
	</g>
</g>
<g>
	<g>
		<path style="fill:#717071;" d="M98.14,37.186c-2.922,4.592-6.4,7.582-12.035,7.582c-10.574,0-13.913-9.738-13.913-18.713
			c0-14.471,7.651-18.783,13.496-18.783c5.635,0,8.905,2.922,11.479,7.722l-4.243,2.157c-1.531-2.922-3.618-5.496-7.166-5.496
			c-7.235,0-8.696,8.766-8.696,14.332c0,5.635,1.322,14.398,8.696,14.398c4.243,0,6.4-2.573,8.556-5.843L98.14,37.186z"/>
		<path style="fill:#717071;" d="M109.132,26.055c0,5.287,0.973,14.33,8,14.33c7.026,0,8-9.043,8-14.33c0-5.357-0.973-14.4-8-14.4
			C110.105,11.654,109.132,20.697,109.132,26.055z M130.001,26.055c0,2.922-0.209,18.713-12.87,18.713
			c-5.844,0-12.87-4.174-12.87-18.713c0-14.471,6.887-18.783,12.87-18.783C122.906,7.272,130.001,11.445,130.001,26.055z"/>
		<polygon style="fill:#717071;" points="140.087,7.898 144.749,7.898 144.749,39.969 163.741,39.969 163.741,44.143 
			140.087,44.143 		"/>
		<path style="fill:#717071;" d="M173.131,26.055c0,5.287,0.975,14.33,8.001,14.33c7.027,0,8.001-9.043,8.001-14.33
			c0-5.357-0.974-14.4-8.001-14.4C174.106,11.654,173.131,20.697,173.131,26.055z M194.001,26.055
			c0,2.922-0.208,18.713-12.87,18.713c-5.844,0-12.87-4.174-12.87-18.713c0-14.471,6.887-18.783,12.87-18.783
			C186.906,7.272,194.001,11.445,194.001,26.055z"/>
		<path style="fill:#717071;" d="M213.41,24.455c4.522,0,7.514-2.574,7.514-6.68c0-3.269-1.948-5.703-6.122-5.703h-7.513v12.383
			H213.41z M202.627,7.898h12.312c6.053,0,10.852,2.852,10.852,9.877c0,4.452-2.99,8.836-7.373,10.158l8.904,14.678l-4.034,2.436
			l-9.253-16.418h-6.748v15.514h-4.662V7.898z"/>
		<path style="fill:#717071;" d="M257.376,40.803c-2.99,2.365-7.444,3.965-11.13,3.965c-10.645,0-13.706-9.879-13.706-18.781
			c0-8.768,3.2-18.715,13.566-18.715c4.869,0,9.111,2.853,11.617,6.957l-3.966,2.574c-1.738-2.922-4.383-5.148-7.931-5.148
			c-7.165,0-8.417,8.975-8.417,14.471c0,5.634,1.252,14.26,8.557,14.26c2.365,0,4.73-0.625,6.748-1.877v-9.531h-8.696v-4.174h13.357
			V40.803z"/>
		<polygon style="fill:#717071;" points="286.801,6.993 291.184,9.289 279.427,30.16 279.427,44.143 274.767,44.143 274.767,30.16 
			263.079,9.289 267.462,6.993 277.131,25.637 		"/>
	</g>
</g>
</svg>
