<?xml version="1.0" encoding="iso-8859-1"?>
<!-- Generator: Adobe Illustrator 17.0.0, SVG Export Plug-In . SVG Version: 6.00 Build 0)  -->
<!DOCTYPE svg PUBLIC "-//W3C//DTD SVG 1.1//EN" "http://www.w3.org/Graphics/SVG/1.1/DTD/svg11.dtd">
<svg version="1.1" xmlns="http://www.w3.org/2000/svg" xmlns:xlink="http://www.w3.org/1999/xlink" x="0px" y="0px"
	 width="310.203px" height="73.18px" viewBox="0 0 310.203 73.18" style="enable-background:new 0 0 310.203 73.18;"
	 xml:space="preserve">
<g id="&#x5716;&#x5C64;_1">
	<g>
		<g>
			<g>
				<linearGradient id="SVGID_1_" gradientUnits="userSpaceOnUse" x1="8" y1="59.1132" x2="64.9017" y2="59.1132">
					<stop  offset="0" style="stop-color:#6EC5CB"/>
					<stop  offset="0.3595" style="stop-color:#75C7D0"/>
					<stop  offset="1" style="stop-color:#7ECAD6"/>
				</linearGradient>
				<path style="fill:url(#SVGID_1_);" d="M64.889,62.65H8v-7.074c0,0,36.822,0,50.883,0C65.471,55.576,64.889,62.65,64.889,62.65z"
					/>
			</g>
		</g>
		<g>
			<g>
				<linearGradient id="SVGID_2_" gradientUnits="userSpaceOnUse" x1="11.0195" y1="44.1239" x2="61.8691" y2="44.1239">
					<stop  offset="0" style="stop-color:#6EC5CB"/>
					<stop  offset="0.3595" style="stop-color:#75C7D0"/>
					<stop  offset="1" style="stop-color:#7ECAD6"/>
				</linearGradient>
				<rect x="11.02" y="40.587" style="fill:url(#SVGID_2_);" width="50.85" height="7.074"/>
			</g>
		</g>
		<g>
			<g>
				<linearGradient id="SVGID_3_" gradientUnits="userSpaceOnUse" x1="11.0195" y1="29.1356" x2="61.8691" y2="29.1356">
					<stop  offset="0" style="stop-color:#6EC5CB"/>
					<stop  offset="0.3595" style="stop-color:#75C7D0"/>
					<stop  offset="1" style="stop-color:#7ECAD6"/>
				</linearGradient>
				<rect x="11.02" y="25.598" style="fill:url(#SVGID_3_);" width="50.85" height="7.074"/>
			</g>
		</g>
		<g>
			<g>
				<linearGradient id="SVGID_4_" gradientUnits="userSpaceOnUse" x1="9.5076" y1="14.1488" x2="63.3789" y2="14.1488">
					<stop  offset="0" style="stop-color:#F3E727"/>
					<stop  offset="0.2045" style="stop-color:#F3E125"/>
					<stop  offset="0.6226" style="stop-color:#F3D823"/>
				</linearGradient>
				<path style="fill:url(#SVGID_4_);" d="M63.379,17.686c0,0-35.652,0-48.562,0c-5.576,0-5.307-7.075-5.307-7.075h53.869V17.686z"
					/>
			</g>
		</g>
		<g>
			<g>
				<linearGradient id="SVGID_5_" gradientUnits="userSpaceOnUse" x1="11.0195" y1="21.6429" x2="63.3789" y2="21.6429">
					<stop  offset="0" style="stop-color:#F3D823"/>
					<stop  offset="1" style="stop-color:#F3E727"/>
				</linearGradient>
				<polygon style="fill:url(#SVGID_5_);" points="63.379,17.686 11.019,32.675 11.019,25.598 63.379,10.611 				"/>
			</g>
		</g>
		<g>
			<g>
				<linearGradient id="SVGID_6_" gradientUnits="userSpaceOnUse" x1="11.0195" y1="36.6307" x2="61.8691" y2="36.6307">
					<stop  offset="0" style="stop-color:#F3D823"/>
					<stop  offset="1" style="stop-color:#F3E727"/>
				</linearGradient>
				<polygon style="fill:url(#SVGID_6_);" points="61.869,32.675 11.019,47.663 11.019,40.587 61.869,25.598 				"/>
			</g>
		</g>
		<g>
			<g>
				<linearGradient id="SVGID_7_" gradientUnits="userSpaceOnUse" x1="8" y1="51.6185" x2="61.8691" y2="51.6185">
					<stop  offset="0" style="stop-color:#F3D823"/>
					<stop  offset="1" style="stop-color:#F3E727"/>
				</linearGradient>
				<polygon style="fill:url(#SVGID_7_);" points="61.869,47.663 8,62.65 8,55.575 61.869,40.587 				"/>
			</g>
		</g>
	</g>
	<g>
		<g>
			<path style="fill:#717071;" d="M106.14,47.797c-2.922,4.592-6.4,7.582-12.035,7.582c-10.574,0-13.913-9.738-13.913-18.713
				c0-14.471,7.651-18.783,13.496-18.783c5.635,0,8.905,2.922,11.479,7.722l-4.243,2.157c-1.531-2.922-3.618-5.496-7.165-5.496
				c-7.235,0-8.696,8.766-8.696,14.332c0,5.635,1.322,14.398,8.696,14.398c4.243,0,6.4-2.573,8.556-5.843L106.14,47.797z"/>
			<path style="fill:#717071;" d="M117.132,36.666c0,5.287,0.973,14.33,8,14.33c7.026,0,8-9.043,8-14.33c0-5.357-0.973-14.4-8-14.4
				C118.105,22.265,117.132,31.308,117.132,36.666z M138.001,36.666c0,2.922-0.209,18.713-12.87,18.713
				c-5.844,0-12.87-4.174-12.87-18.713c0-14.471,6.887-18.783,12.87-18.783C130.906,17.883,138.001,22.056,138.001,36.666z"/>
			<polygon style="fill:#717071;" points="148.087,18.51 152.749,18.51 152.749,50.58 171.741,50.58 171.741,54.754 148.087,54.754 
							"/>
			<path style="fill:#717071;" d="M181.131,36.666c0,5.287,0.975,14.33,8,14.33c7.027,0,8.001-9.043,8.001-14.33
				c0-5.357-0.974-14.4-8.001-14.4C182.106,22.265,181.131,31.308,181.131,36.666z M202.001,36.666
				c0,2.922-0.208,18.713-12.87,18.713c-5.844,0-12.87-4.174-12.87-18.713c0-14.471,6.887-18.783,12.87-18.783
				C194.906,17.883,202.001,22.056,202.001,36.666z"/>
			<path style="fill:#717071;" d="M221.41,35.066c4.522,0,7.514-2.574,7.514-6.68c0-3.269-1.948-5.703-6.122-5.703h-7.513v12.383
				H221.41z M210.627,18.51h12.312c6.053,0,10.853,2.851,10.853,9.877c0,4.452-2.99,8.836-7.373,10.158l8.904,14.678l-4.034,2.436
				l-9.253-16.418h-6.748v15.514h-4.662V18.51z"/>
			<path style="fill:#717071;" d="M265.376,51.414c-2.99,2.365-7.444,3.965-11.13,3.965c-10.645,0-13.706-9.879-13.706-18.781
				c0-8.768,3.2-18.715,13.566-18.715c4.869,0,9.111,2.854,11.617,6.957l-3.966,2.574c-1.738-2.922-4.383-5.149-7.931-5.149
				c-7.165,0-8.417,8.975-8.417,14.471c0,5.634,1.252,14.26,8.557,14.26c2.365,0,4.73-0.625,6.748-1.877v-9.531h-8.696v-4.174
				h13.357V51.414z"/>
			<polygon style="fill:#717071;" points="294.801,17.604 299.184,19.9 287.427,40.771 287.427,54.754 282.767,54.754 
				282.767,40.771 271.079,19.9 275.462,17.604 285.131,36.248 			"/>
		</g>
	</g>
</g>
<g id="&#x5716;&#x5C64;_1_&#x62F7;&#x8C9D;" style="display:none;">
	<g style="display:inline;">
		<g>
			<g>
				<g>
					<linearGradient id="SVGID_8_" gradientUnits="userSpaceOnUse" x1="4" y1="59.1132" x2="68.9012" y2="59.1132">
						<stop  offset="0" style="stop-color:#6EC5CB"/>
						<stop  offset="0.3595" style="stop-color:#75C7D0"/>
						<stop  offset="1" style="stop-color:#7ECAD6"/>
					</linearGradient>
					<path style="fill:url(#SVGID_8_);" d="M4,66.65V51.576h54.883c3.765,0,6.043,1.616,7.292,2.972
						c3.028,3.287,2.742,7.914,2.7,8.431l-0.302,3.672H4z"/>
					<path style="fill:#231815;" d="M58.883,55.576c6.588,0,6.006,7.074,6.006,7.074H8v-7.074C8,55.576,44.822,55.576,58.883,55.576
						 M58.883,47.576H8H0v8v7.074v8h8h56.889h7.369l0.604-7.344c0.093-1.135,0.352-7.022-3.744-11.469
						C67.327,49.894,64.097,47.576,58.883,47.576L58.883,47.576z"/>
				</g>
			</g>
		</g>
		<g>
			<g>
				<g>
					<linearGradient id="SVGID_9_" gradientUnits="userSpaceOnUse" x1="7.0195" y1="44.1239" x2="65.8691" y2="44.1239">
						<stop  offset="0" style="stop-color:#6EC5CB"/>
						<stop  offset="0.3595" style="stop-color:#75C7D0"/>
						<stop  offset="1" style="stop-color:#7ECAD6"/>
					</linearGradient>
					<rect x="7.019" y="36.587" style="fill:url(#SVGID_9_);" width="58.85" height="15.074"/>
					<path style="fill:#231815;" d="M61.869,40.587v7.074H11.02v-7.074H61.869 M69.869,32.587h-8H11.02h-8v8v7.074v8h8h50.85h8v-8
						v-7.074V32.587L69.869,32.587z"/>
				</g>
			</g>
		</g>
		<g>
			<g>
				<g>
					<linearGradient id="SVGID_10_" gradientUnits="userSpaceOnUse" x1="7.0195" y1="29.1356" x2="65.8691" y2="29.1356">
						<stop  offset="0" style="stop-color:#6EC5CB"/>
						<stop  offset="0.3595" style="stop-color:#75C7D0"/>
						<stop  offset="1" style="stop-color:#7ECAD6"/>
					</linearGradient>
					<rect x="7.019" y="21.599" style="fill:url(#SVGID_10_);" width="58.85" height="15.074"/>
					<path style="fill:#231815;" d="M61.869,25.598v7.074H11.02v-7.074H61.869 M69.869,17.598h-8H11.02h-8v8v7.074v8h8h50.85h8v-8
						v-7.074V17.598L69.869,17.598z"/>
				</g>
			</g>
		</g>
		<g>
			<g>
				<g>
					<linearGradient id="SVGID_11_" gradientUnits="userSpaceOnUse" x1="5.5059" y1="14.1488" x2="67.3789" y2="14.1488">
						<stop  offset="0" style="stop-color:#F3E727"/>
						<stop  offset="0.2045" style="stop-color:#F3E125"/>
						<stop  offset="0.6226" style="stop-color:#F3D823"/>
					</linearGradient>
					<path style="fill:url(#SVGID_11_);" d="M14.816,21.686c-2.514,0-4.708-0.899-6.346-2.601c-3.009-3.125-2.992-7.734-2.958-8.626
						l0.146-3.848h61.72v15.075H14.816z"/>
					<path style="fill:#231815;" d="M63.379,10.611v7.075c0,0-35.652,0-48.562,0c-5.576,0-5.307-7.075-5.307-7.075H63.379
						 M71.379,2.611h-8H9.51H1.809l-0.293,7.695c-0.045,1.176-0.059,7.26,4.073,11.553c2.376,2.468,5.653,3.827,9.228,3.827h48.562
						h8v-8v-7.075V2.611L71.379,2.611z"/>
				</g>
			</g>
		</g>
		<g>
			<g>
				<g>
					<linearGradient id="SVGID_12_" gradientUnits="userSpaceOnUse" x1="7.0195" y1="21.6429" x2="67.3789" y2="21.6429">
						<stop  offset="0" style="stop-color:#F3D823"/>
						<stop  offset="1" style="stop-color:#F3E727"/>
					</linearGradient>
					<polygon style="fill:url(#SVGID_12_);" points="7.019,22.583 67.379,5.306 67.379,20.702 7.019,37.98 					"/>
					<path style="fill:#231815;" d="M63.379,10.611v7.075L11.02,32.675v-7.076L63.379,10.611 M71.379,0L61.177,2.92L8.818,17.907
						l-5.798,1.66v6.031v7.076v10.611l10.202-2.92l52.359-14.988l5.798-1.66v-6.031v-7.075V0L71.379,0z"/>
				</g>
			</g>
		</g>
		<g>
			<g>
				<g>
					<linearGradient id="SVGID_13_" gradientUnits="userSpaceOnUse" x1="7.0195" y1="36.631" x2="65.8691" y2="36.631">
						<stop  offset="0" style="stop-color:#F3D823"/>
						<stop  offset="1" style="stop-color:#F3E727"/>
					</linearGradient>
					<polygon style="fill:url(#SVGID_13_);" points="7.019,37.596 65.869,20.249 65.869,35.666 7.019,53.013 					"/>
					<path style="fill:#231815;" d="M61.869,25.598v7.076L11.02,47.663v-7.076L61.869,25.598 M69.869,14.9l-10.262,3.025
						L8.758,32.913L3.02,34.605v5.982v7.076v10.698l10.262-3.025l50.85-14.988l5.738-1.691v-5.982v-7.076V14.9L69.869,14.9z"/>
				</g>
			</g>
		</g>
		<g>
			<g>
				<g>
					<linearGradient id="SVGID_14_" gradientUnits="userSpaceOnUse" x1="4" y1="51.6185" x2="65.8691" y2="51.6185">
						<stop  offset="0" style="stop-color:#F3D823"/>
						<stop  offset="1" style="stop-color:#F3E727"/>
					</linearGradient>
					<polygon style="fill:url(#SVGID_14_);" points="4,52.536 65.869,35.322 65.869,50.702 4,67.915 					"/>
					<path style="fill:#231815;" d="M61.869,40.587v7.076L8,62.65v-7.075L61.869,40.587 M69.869,30.057L59.725,32.88L5.856,47.868
						L0,49.497v6.078v7.075v10.53l10.144-2.822L64.013,55.37l5.856-1.629v-6.078v-7.076V30.057L69.869,30.057z"/>
				</g>
			</g>
		</g>
	</g>
	<g style="display:inline;">
		<g>
			<g>
				<path style="fill:#717071;" d="M94.105,59.379c-11.049,0-17.913-8.703-17.913-22.713c0-16.816,9.425-22.783,17.496-22.783
					c8.723,0,12.741,5.611,15.004,9.832l1.932,3.603l-11.409,5.8l-1.834-3.499c-1.757-3.353-2.971-3.353-3.623-3.353
					c-1.151,0-2.36,0.326-3.399,2.689c-0.824,1.874-1.297,4.66-1.297,7.643c0,3.127,0.458,10.398,4.696,10.398
					c2.001,0,3.123-0.869,5.217-4.045l2.25-3.412l10.357,7.156l-2.068,3.249C106.937,53.994,102.536,59.379,94.105,59.379z"/>
				<path style="fill:#231815;" d="M93.688,17.883c5.635,0,8.905,2.922,11.479,7.722l-4.243,2.157
					c-1.531-2.922-3.618-5.496-7.166-5.496c-7.235,0-8.696,8.766-8.696,14.332c0,5.635,1.322,14.398,8.696,14.398
					c4.243,0,6.4-2.573,8.556-5.843l3.826,2.644c-2.922,4.592-6.4,7.582-12.035,7.582c-10.574,0-13.913-9.738-13.913-18.713
					C80.192,22.195,87.844,17.883,93.688,17.883 M93.688,9.883c-10.699,0-21.496,8.282-21.496,26.783
					c0,16.227,8.601,26.713,21.913,26.713c11.602,0,17.008-8.495,18.784-11.287l4.135-6.498l-6.337-4.378l-3.826-2.644l-4.047-2.797
					l1.735-0.882l4.243-2.157l7.289-3.706l-3.864-7.206C107.968,13.9,101.734,9.883,93.688,9.883L93.688,9.883z M94.04,42.868
					c-0.426-0.92-0.979-3.014-0.979-6.27c0-2.378,0.333-4.161,0.685-5.293c0.03,0.055,0.06,0.111,0.091,0.17l3.504,6.686
					l-1.706,2.587C94.78,42.046,94.297,42.617,94.04,42.868L94.04,42.868z"/>
			</g>
			<g>
				<path style="fill:#717071;" d="M125.132,59.379c-8.155,0-16.87-5.967-16.87-22.713c0-16.798,8.714-22.783,16.87-22.783
					c2.817,0,16.87,1.099,16.87,22.783C142.001,50.676,135.538,59.379,125.132,59.379z M125.132,26.266
					c-0.709,0-1.896,0-2.899,2.621c-0.72,1.881-1.101,4.571-1.101,7.779c0,3.174,0.38,5.841,1.099,7.714
					c1.004,2.616,2.191,2.616,2.901,2.616c0.709,0,1.896,0,2.9-2.616c0.719-1.873,1.099-4.54,1.099-7.714
					c0-3.208-0.38-5.898-1.101-7.779C127.028,26.266,125.841,26.266,125.132,26.266z"/>
				<path style="fill:#231815;" d="M125.132,17.883c5.774,0,12.87,4.174,12.87,18.783c0,2.922-0.209,18.713-12.87,18.713
					c-5.844,0-12.87-4.174-12.87-18.713C112.262,22.195,119.149,17.883,125.132,17.883 M125.132,50.996
					c7.026,0,7.999-9.043,7.999-14.33c0-5.357-0.973-14.4-7.999-14.4c-7.027,0-8,9.043-8,14.4
					C117.132,41.953,118.105,50.996,125.132,50.996 M125.132,9.883c-9.627,0-20.87,7.014-20.87,26.783
					c0,19.717,11.242,26.713,20.87,26.713c8.627,0,15.429-4.893,18.663-13.425c1.443-3.808,2.206-8.403,2.206-13.288
					C146.001,16.897,134.759,9.883,125.132,9.883L125.132,9.883z"/>
			</g>
			<g>
				<polygon style="fill:#717071;" points="144.087,58.754 144.087,14.51 156.749,14.51 156.749,46.58 175.741,46.58 
					175.741,58.754 				"/>
				<path style="fill:#231815;" d="M152.749,18.51v32.07h18.992v4.174h-23.653V18.51H152.749 M160.749,10.51h-8h-4.662h-8v8v36.244
					v8h8h23.653h8v-8V50.58v-8h-8h-10.992V18.51V10.51L160.749,10.51z"/>
			</g>
			<g>
				<path style="fill:#717071;" d="M189.132,59.379c-8.155,0-16.87-5.967-16.87-22.713c0-16.798,8.714-22.783,16.87-22.783
					c2.817,0,16.87,1.099,16.87,22.783C206.001,50.676,199.538,59.379,189.132,59.379z M189.132,26.266
					c-0.709,0-1.896,0-2.899,2.621c-0.72,1.882-1.101,4.572-1.101,7.779c0,3.173,0.38,5.84,1.1,7.714
					c1.005,2.616,2.192,2.616,2.901,2.616c0.709,0,1.896,0,2.901-2.616c0.719-1.873,1.1-4.541,1.1-7.714
					c0-3.208-0.381-5.898-1.101-7.779C191.028,26.266,189.841,26.266,189.132,26.266z"/>
				<path style="fill:#231815;" d="M189.132,17.883c5.774,0,12.87,4.174,12.87,18.783c0,2.922-0.208,18.713-12.87,18.713
					c-5.844,0-12.87-4.174-12.87-18.713C176.262,22.195,183.149,17.883,189.132,17.883 M189.132,50.996c7.027,0,8-9.043,8-14.33
					c0-5.357-0.974-14.4-8-14.4c-7.026,0-8.001,9.043-8.001,14.4C181.131,41.953,182.106,50.996,189.132,50.996 M189.132,9.883
					c-9.627,0-20.87,7.014-20.87,26.783c0,19.717,11.242,26.713,20.87,26.713c8.627,0,15.43-4.893,18.664-13.425
					c1.443-3.808,2.206-8.402,2.206-13.288C210.001,16.897,198.759,9.883,189.132,9.883L189.132,9.883z"/>
			</g>
			<g>
				<path style="fill:#717071;" d="M219.699,43.24h-0.41v15.514h-12.662V14.51h16.312c9.162,0,14.853,5.317,14.853,13.877
					c0,4.589-2.266,8.948-5.775,11.675l8.805,14.514l-10.994,6.638L219.699,43.24z M221.41,31.066c3.514,0,3.514-2.017,3.514-2.68
					c0-0.876,0-1.703-2.122-1.703h-3.513v4.383H221.41z"/>
				<path style="fill:#231815;" d="M222.939,18.51c6.053,0,10.853,2.852,10.853,9.877c0,4.452-2.99,8.836-7.373,10.158l8.904,14.678
					l-4.034,2.436l-9.253-16.418h-6.748v15.514h-4.662V18.51H222.939 M215.288,35.066h6.122c4.523,0,7.514-2.574,7.514-6.68
					c0-3.268-1.948-5.703-6.122-5.703h-7.513V35.066 M222.939,10.51h-12.312h-8v8v36.244v8h8h4.662h8v-4.997l1.031,1.83l4.047,7.181
					l7.057-4.26l4.034-2.436l6.863-4.144l-4.158-6.855l-5.041-8.309c2.925-3.338,4.67-7.721,4.67-12.377
					C241.792,17.694,234.216,10.51,222.939,10.51L222.939,10.51z"/>
			</g>
			<g>
				<path style="fill:#717071;" d="M254.246,59.379c-11.087,0-17.706-8.517-17.706-22.781c0-14.011,6.731-22.715,17.566-22.715
					c6.02,0,11.639,3.317,15.031,8.873l2.028,3.321l-8.224,5.338h6.434V53.35l-1.519,1.201
					C264.149,57.484,258.807,59.379,254.246,59.379z M250.294,43.588c0.658,1.945,1.782,3.408,3.673,3.408
					c0.954,0,1.88-0.141,2.748-0.413v-2.995H250.294z M259.483,31.414l-1.163-1.955c-1.261-2.119-2.772-3.193-4.493-3.193
					c-2.293,0-3.402,2.508-3.936,5.148H259.483z"/>
				<path style="fill:#231815;" d="M254.106,17.883c4.869,0,9.111,2.854,11.617,6.957l-3.966,2.574
					c-1.738-2.922-4.383-5.148-7.931-5.148c-7.165,0-8.417,8.975-8.417,14.471c0,5.634,1.252,14.26,8.557,14.26
					c2.365,0,4.73-0.625,6.748-1.877v-9.531h-8.696v-4.174h13.357v16c-2.99,2.365-7.444,3.965-11.13,3.965
					c-10.645,0-13.706-9.879-13.706-18.781C240.54,27.83,243.74,17.883,254.106,17.883 M254.106,9.883
					c-13.101,0-21.566,10.486-21.566,26.715c0,4.565,0.686,11.18,3.956,16.769c3.777,6.457,10.081,10.012,17.75,10.012
					c5.489,0,11.655-2.18,16.093-5.69l3.037-2.402v-3.872v-16V29.41l3.231-2.098l-4.056-6.642
					C268.426,13.915,261.531,9.883,254.106,9.883L254.106,9.883z"/>
			</g>
			<g>
				<polygon style="fill:#717071;" points="278.767,58.754 278.767,41.815 265.579,18.266 277.164,12.197 285.131,27.56 
					293.099,12.198 304.694,18.27 291.427,41.82 291.427,58.754 				"/>
				<path style="fill:#231815;" d="M294.801,17.604l4.384,2.296l-11.758,20.871v13.982h-4.66V40.771L271.079,19.9l4.383-2.296
					l9.669,18.644L294.801,17.604 M278.865,6.79l-7.116,3.728l-4.383,2.296l-7.287,3.817l4.02,7.178l10.668,19.05v11.895v8h8h4.66h8
					v-8V42.87l10.728-19.043l4.049-7.187l-7.307-3.827l-4.384-2.296l-7.115-3.726l-3.698,7.13l-2.568,4.951l-2.568-4.951
					L278.865,6.79L278.865,6.79z"/>
			</g>
		</g>
	</g>
</g>
</svg>
